<svg width="16" height="16" xmlns="http://www.w3.org/2000/svg" viewBox="0 0 16 16">
    <g id="main" mask="url(#dynatraceLogoMask)">
        <rect x="1.5" y="2.5" width="13" height="11" rx="1.5" fill="#E7EFFD" stroke="#3574F0"/>
        <g id="console-content">
            <path d="M5 5 L8 7 L5 9"
                  stroke="#548AF7"
                  stroke-width="1"
                  fill="none"
                  stroke-linecap="round"
                  stroke-linejoin="round"/>
        </g>
    </g>

    <g id="badge" transform="translate(8 8) scale(0.015)">
        <path d="M173.7 42.8c-6.5 34.7-14.6 86.2-19 138.5-7.6 92.1-2.9 153.9-2.9 153.9L22 458.5s-9.8-69-14.9-146.9c-2.9-48.2-4-90.6-4-116.2 0-1.4.7-2.9.7-4.3 0-1.8 2.1-19 19-35.1C41 138.2 175.9 32.6 173.7 42.8z"
              fill="#1496FF"/>
        <path d="M173.7 42.8c-6.5 34.7-14.6 86.2-19 138.5 0 0-143.6-17.2-151.7 17.5 0-1.8 2.5-23 19.3-39.1 23.6-21.9 158.9-131.6 156.7-121.3z"
              fill="#1284EA"/>
        <path d="M3 190.5v8c1.4-6.2 4-10.6 9.1-17.5 10.6-13.5 27.7-17.1 34.7-17.9 35.1-4.7 87-10.2 139.3-11.7 92.4-2.9 153.5 4.7 153.5 4.7L469.5 33s-67.9-12.8-145.5-21.9c-50.8-6.2-95.4-9.5-120.6-11-1.8 0-19.7-2.2-36.5 13.9-18.2 17.5-111.1 105.6-148.4 141.1-16.8 16.1-15.3 34-15.3 35.5z"
              fill="#B4DC00"/>
        <path d="M464.7 348.1c-35.1 4.7-87 10.6-139.3 12.4-92.4 2.9-153.9-4.7-153.9-4.7L41.7 479.3s68.7 13.5 146.2 22.3c47.5 5.4 89.5 8.4 115.1 9.8 1.8 0 4.7-1.4 6.5-1.4 1.8 0 19.7-3.2 36.5-19.3 18.3-17.5 128.6-143.6 118.5-142.6z"
              fill="#6F2DA8"/>
        <path d="M464.7 348.1c-35.1 4.7-87 10.6-139.2 12.4 0 0 9.8 144.4-24.8 150.6 1.8 0 25.5-1.1 42.4-17.1 18.2-17.5 131.9-146.9 121.7-145.9z"
              fill="#591F91"/>
        <path d="M308.2 511.9c-2.5 0-5.1-.4-8-.4 6.5-1.1 10.9-3.3 17.9-8.4 13.9-9.8 18.2-27 19.7-34 6.2-34.7 14.6-86.2 18.6-138.5 7.3-92.1 2.9-153.5 2.9-153.5L489.2 53.4s9.5 68.7 14.9 146.6c3.3 50.8 4.4 95.8 4.7 120.6 0 1.8 1.4 19.7-15.3 35.8-18.3 17.5-111.1 106-148 141.5-17.5 16.1-35.5 13.9-37.3 13.9z"
              fill="#73BE28"/>
    </g>

    <defs>
        <mask id="dynatraceLogoMask">
            <rect x="0" y="0" width="16" height="16" fill="white"/>
            <g transform="translate(8 8) scale(0.015)">
                <path d="M173.7 42.8c-6.5 34.7-14.6 86.2-19 138.5-7.6 92.1-2.9 153.9-2.9 153.9L22 458.5s-9.8-69-14.9-146.9c-2.9-48.2-4-90.6-4-116.2 0-1.4.7-2.9.7-4.3 0-1.8 2.1-19 19-35.1C41 138.2 175.9 32.6 173.7 42.8z M5 190.5v8c1.4-6.2 4-10.6 9.1-17.5 10.6-13.5 27.7-17.1 34.7-17.9 35.1-4.7 87-10.2 139.3-11.7 92.4-2.9 153.5 4.7 153.5 4.7L469.5 33s-67.9-12.8-145.5-21.9c-50.8-6.2-95.4-9.5-120.6-11-1.8 0-19.7-2.2-36.5 13.9-18.2 17.5-111.1 105.6-148.4 141.1-16.8 16.1-15.3 34-15.3 35.5z M464.7 348.1c-35.1 4.7-87 10.6-139.3 12.4-92.4 2.9-153.9-4.7-153.9-4.7L41.7 479.3s68.7 13.5 146.2 22.3c47.5 5.4 89.5 8.4 115.1 9.8 1.8 0 4.7-1.4 6.5-1.4 1.8 0 19.7-3.2 36.5-19.3 18.3-17.5 128.6-143.6 118.5-142.6z M308.2 511.9c-2.5 0-5.1-.4-8-.4 6.5-1.1 10.9-3.3 17.9-8.4 13.9-9.8 18.2-27 19.7-34 6.2-34.7 14.6-86.2 18.6-138.5 7.3-92.1 2.9-153.5 2.9-153.5L489.2 53.4s9.5 68.7 14.9 146.6c3.3 50.8 4.4 95.8 4.7 120.6 0 1.8 1.4 19.7-15.3 35.8-18.3 17.5-111.1 106-148 141.5-17.5 16.1-35.5 13.9-37.3 13.9z"
                      fill="none" stroke="black" stroke-width="50"/>
            </g>
        </mask>
    </defs>
</svg>
