<svg fill="none" xmlns="http://www.w3.org/2000/svg" viewBox="0 0 512 512" width="16" height="16">
    <g clip-path="url(#prefix__clip0_1_2)">
        <path d="M173.753 42.873c-6.58 34.73-14.623 86.275-19.01 138.551-7.677 92.124-2.924 153.906-2.924 153.906L22.041 458.527s-9.87-69.093-14.988-146.959c-2.924-48.256-4.021-90.662-4.021-116.252 0-1.462.73-2.925.73-4.387 0-1.828 2.194-19.009 19.01-35.094C41.051 138.287 175.946 32.637 173.753 42.873z"
              fill="#1496FF"/>
        <path d="M173.753 42.873c-6.58 34.73-14.623 86.275-19.01 138.552 0 0-143.669-17.182-151.711 17.547 0-1.828 2.559-23.031 19.375-39.116C40.685 142.309 175.946 32.637 173.753 42.873z"
              fill="#1284EA"/>
        <path d="M3.032 190.563v8.043c1.462-6.215 4.021-10.602 9.14-17.548 10.6-13.526 27.783-17.181 34.728-17.912 35.095-4.753 87.006-10.236 139.283-11.699 92.489-2.924 153.54 4.753 153.54 4.753L469.5 33.002s-67.996-12.795-145.497-21.934C273.189 4.853 228.589 1.563 203.365.101c-1.828 0-19.741-2.194-36.557 13.892-18.279 17.547-111.134 105.65-148.422 141.11-16.816 16.085-15.354 33.998-15.354 35.46z"
              fill="#B4DC00"/>
        <path d="M464.748 348.124c-35.095 4.752-87.006 10.601-139.283 12.429-92.489 2.925-153.905-4.752-153.905-4.752L41.782 479.364s68.727 13.526 146.228 22.3c47.525 5.483 89.565 8.408 115.155 9.87 1.828 0 4.752-1.462 6.58-1.462 1.828 0 19.741-3.29 36.558-19.375 18.278-17.548 128.681-143.67 118.445-142.573z"
              fill="#6F2DA8"/>
        <path d="M464.747 348.124c-35.095 4.752-87.006 10.601-139.282 12.429 0 0 9.87 144.401-24.859 150.615 1.828 0 25.59-1.097 42.406-17.182 18.279-17.547 131.971-146.959 121.735-145.862z"
              fill="#591F91"/>
        <path d="M308.284 511.9c-2.559 0-5.118-.366-8.043-.366 6.581-1.097 10.967-3.29 17.913-8.408 13.892-9.87 18.279-27.052 19.741-33.998 6.215-34.729 14.623-86.275 18.644-138.551 7.312-92.124 2.925-153.54 2.925-153.54L489.241 53.474s9.505 68.727 14.989 146.594c3.29 50.814 4.386 95.779 4.752 120.638 0 1.828 1.462 19.741-15.354 35.826-18.278 17.548-111.133 106.016-148.056 141.476-17.547 16.085-35.46 13.892-37.288 13.892z"
              fill="#73BE28"/>
    </g>
    <defs>
        <clipPath id="prefix__clip0_1_2">
            <path fill="#fff" d="M0 0h512v512H0z"/>
        </clipPath>
    </defs>
</svg>